<svg width="15" height="11" viewBox="0 0 15 11" fill="none" xmlns="http://www.w3.org/2000/svg">
<path fill-rule="evenodd" clip-rule="evenodd" d="M9.72558 2.40664H13.3857V1.36116H9.72558V2.40664ZM11.5297 4.50576C10.7133 4.50576 10.0932 5.01034 10.0335 5.94246H12.9627C12.7641 4.83622 12.2714 4.50576 11.5297 4.50576ZM11.6441 8.8292C12.398 8.8292 12.9512 8.35425 13.0641 7.95414H14.6496C14.1964 9.40121 13.2605 10.214 11.5801 10.214C9.43568 10.214 8.2322 8.69286 8.2322 6.67452C8.2322 1.92132 15.1092 1.7509 14.7639 7.11835H10.0335C10.0795 8.20828 10.5305 8.8292 11.6441 8.8292ZM4.50954 8.62025C5.37492 8.62025 5.98062 8.28831 5.98062 7.3925C5.98062 6.46334 5.44542 6.06027 4.54695 6.06027H2.37881V8.62025H4.50954ZM4.39516 4.66284C5.11523 4.66284 5.61231 4.32867 5.61231 3.55215C5.61231 2.73414 5.03395 2.48148 4.24338 2.48148H2.37881V4.66284H4.39516ZM4.64909 0.887695C6.35468 0.887695 7.54018 1.45008 7.54018 3.19946C7.54018 4.06563 7.19129 4.711 6.31008 5.14594C7.43803 5.4801 7.97179 6.35739 7.97179 7.51031C7.97179 9.34045 6.51654 10.214 4.7757 10.214H0.387634V0.887695H4.64909Z" fill="#1C1B24"/>
</svg>
