<svg width="14" height="14" viewBox="0 0 14 14" fill="none" xmlns="http://www.w3.org/2000/svg">
<path fill-rule="evenodd" clip-rule="evenodd" d="M13.0705 5.78468H7.1442C7.1442 6.39934 7.1442 7.62864 7.14042 8.2433H10.5746C10.443 8.85795 9.97639 9.71847 9.31714 10.1518C9.31651 10.1512 9.31588 10.1555 9.31462 10.1549C8.43814 10.732 7.28146 10.863 6.42261 10.6908C5.07641 10.4241 4.01103 9.45048 3.57846 8.21379C3.58098 8.21195 3.58287 8.19474 3.58476 8.19351C3.314 7.42642 3.314 6.39934 3.58476 5.78468H3.58413C3.93296 4.65495 5.03044 3.62417 6.37854 3.34205C7.4628 3.11278 8.68622 3.3611 9.586 4.20072C9.70563 4.08393 11.242 2.58787 11.3572 2.46616C8.28324 -0.310227 3.36123 0.666458 1.51949 4.25173H1.51886C1.51886 4.25173 1.51949 4.25173 1.51571 4.2585C0.604599 6.01948 0.642378 8.09455 1.52201 9.77133C1.51949 9.77317 1.5176 9.7744 1.51571 9.77624C2.31285 11.319 3.76358 12.5022 5.5115 12.9528C7.36835 13.4384 9.73145 13.1064 11.3144 11.6786C11.315 11.6792 11.3157 11.6798 11.3163 11.6804C12.6575 10.4757 13.4924 8.42339 13.0705 5.78468Z" fill="#1C1B24"/>
</svg>
