<svg width="14" height="12" viewBox="0 0 14 12" fill="none" xmlns="http://www.w3.org/2000/svg">
<path fill-rule="evenodd" clip-rule="evenodd" d="M4.4799 11.65C9.52172 11.65 12.2795 7.3117 12.2795 3.54994C12.2795 3.42645 12.2795 3.30365 12.2714 3.18154C12.8079 2.77914 13.2708 2.2796 13.6389 1.70792C13.1392 1.93826 12.6081 2.0895 12.065 2.15611C12.6369 1.80019 13.0651 1.24099 13.2702 0.581193C12.7317 0.912827 12.1432 1.14664 11.5292 1.27221C10.4911 0.126064 8.75479 0.0705599 7.65049 1.14872C6.93901 1.8439 6.63638 2.88043 6.85751 3.86909C4.6536 3.75392 2.59999 2.67299 1.20777 0.894788C0.480253 2.19565 0.85236 3.85937 2.05686 4.6947C1.62062 4.68152 1.19374 4.55941 0.812276 4.33879V4.37486C0.812945 5.72985 1.73286 6.89681 3.01152 7.16531C2.60801 7.27978 2.18446 7.29644 1.77428 7.21387C2.13302 8.3739 3.1625 9.16829 4.33493 9.19119C3.36425 9.9835 2.16509 10.4137 0.930522 10.4123C0.712736 10.4116 0.49495 10.3984 0.277832 10.3713C1.53177 11.2067 2.99014 11.65 4.4799 11.6479" fill="#1C1B24"/>
</svg>
